<?xml version="1.0" standalone="no"?>
<!DOCTYPE svg PUBLIC "-//W3C//DTD SVG 20010904//EN" "http://www.w3.org/TR/2001/REC-SVG-20010904/DTD/svg10.dtd">
<!-- Created using Karbon, part of Calligra: http://www.calligra.org/karbon -->
<svg xmlns="http://www.w3.org/2000/svg" xmlns:xlink="http://www.w3.org/1999/xlink" width="3pt" height="3pt">
<defs/>
<g id="layer0">
  <path id="shape0" transform="matrix(0.125 0 0 -0.125 0.168937 3.55746)" fill="#000000" d="M10.0989 27.1649C6.71186 25.9852 3.5113 23.3708 1.83333 20.3737C1.08757 19.0346 0.0310734 15.3998 0 14.1245C0 13.9651 0.90113 13.8694 2.01977 13.8694C4.00847 13.8694 4.03955 13.8694 4.03955 14.7622C4.03955 17.536 6.5565 21.1708 9.57062 22.7012C11.0932 23.4664 11.7147 23.5939 13.9831 23.5939C17.1215 23.5939 18.7684 22.9563 20.9435 20.8838C25.1384 16.8984 25.1384 10.5216 20.9435 6.53616C18.2712 3.98546 14.5734 3.09272 11.1554 4.113C9.25989 4.65502 6.83616 6.28109 6.83616 6.98253C6.83616 7.2376 7.67514 8.22599 8.70056 9.18251C9.72599 10.1071 10.565 10.9999 10.565 11.0955C10.565 11.2231 8.20339 11.3187 5.28249 11.3187L0 11.3187L0 5.83472L0 0.350721L1.80226 2.16809C2.79661 3.15649 3.69774 3.98546 3.85311 3.98546C4.00847 3.98546 4.59887 3.53909 5.22034 2.99707C5.84181 2.42316 7.27119 1.53042 8.38983 0.988395C10.2853 0.0637674 10.6271 0 13.9831 0C17.4322 0 17.6497 0.0318837 19.7316 1.08405C22.6215 2.5507 25.1695 5.19704 26.5056 8.03469C27.4379 10.0752 27.5 10.426 27.5 13.71C27.5 16.994 27.4379 17.3447 26.5056 19.3853C25.2006 22.2229 22.6215 24.8693 19.7627 26.3359C17.774 27.3243 17.3079 27.42 14.4802 27.4837C12.4915 27.5475 10.8757 27.42 10.0989 27.1649Z"/>
 </g>
</svg>
